# xmcd
#
# Track frame offsets:
#	150
#	15201
#	30838
#	47312
#	66569
#
# Disc length: 1075 seconds
#
# Revision: 0
# Processed by: cddbd v1.5.1PL2 Copyright (c) Steve Scherf et al.
# Submitted via: audiograbber 1.83.01
#
DISCID=2c043105
DTITLE=The Catfish Blues Trio - At the Griffintown Café
DYEAR=2004
DGENRE=Blues
TTITLE0=Your're the One
TTITLE1=Good Morning Little School Girl
TTITLE2=Corrina
TTITLE3=Sad Hours
TTITLE4=Talk to Me Baby
EXTD=Recorded at The Great Urge Studio - Montreal, Canada
EXTT0=James A. Lane
EXTT1=J.L. Williamson
EXTT2=Traditional
EXTT3=M. W. Jacobs
EXTT4=B. Rajakumar
PLAYORDER=
